<?xml version="1.0" encoding="utf-8"?>
<!-- Generator: Adobe Illustrator 19.0.0, SVG Export Plug-In . SVG Version: 6.00 Build 0)  -->
<svg version="1.1" id="Layer_1" xmlns="http://www.w3.org/2000/svg" xmlns:xlink="http://www.w3.org/1999/xlink" x="0px" y="0px" width="30px" height="30px"
	 viewBox="0 0 72 72" style="enable-background:new 0 0 72 72;" xml:space="preserve">
<style type="text/css">
	.st0{fill-rule:evenodd;clip-rule:evenodd;fill:#FFFFFF;}
</style>
<path class="st0" d="M61.4,52.6L44.8,36l16.6-16.6c2.4-2.4,2.4-6.4,0-8.8l0,0c-2.4-2.4-6.4-2.4-8.8,0L36,27.2L19.4,10.6
	c-2.4-2.4-6.4-2.4-8.8,0l0,0c-2.4,2.4-2.4,6.4,0,8.8L27.2,36L10.6,52.6c-2.4,2.4-2.4,6.4,0,8.8l0,0c2.4,2.4,6.4,2.4,8.8,0L36,44.8
	l16.6,16.6c2.4,2.4,6.4,2.4,8.8,0l0,0C63.9,59,63.9,55,61.4,52.6z"/>
</svg>
