<svg xmlns="http://www.w3.org/2000/svg" xml:space="preserve" width="18px" height="18px" version="1.1" style="shape-rendering:geometricPrecision; text-rendering:geometricPrecision; image-rendering:optimizeQuality; fill-rule:evenodd; clip-rule:evenodd"
            viewBox="0 0 583 583" xmlns:xlink="http://www.w3.org/1999/xlink" class="da-svg">
            <defs>
              <style type="text/css">
                .github-svg {
                  fill: rgb(190, 190, 190);
                  fill-rule: nonzero;
                }
              </style>
            </defs>
            <path class="github-svg" d="M535 292c0,-33 -7,-65 -20,-95 -13,-30 -30,-56 -52,-77 -21,-22 -47,-39 -77,-52 -30,-13 -61,-19 -94,-19 -33,0 -65,6 -95,19 -30,13 -56,30 -77,52 -22,21 -39,47 -52,77 -13,30 -19,62 -19,95 0,53 15,100 47,143 31,43 72,73 123,88l0 -64c-14,2 -23,3 -26,3 -28,0 -48,-13 -59,-38 -3,-10 -8,-18 -13,-24 -2,-2 -4,-4 -8,-7 -4,-4 -8,-7 -11,-10 -3,-2 -5,-4 -5,-6 0,-3 4,-4 11,-4 7,0 14,2 19,5 6,4 11,8 15,14 4,5 8,10 12,15 4,6 9,10 15,14 6,4 14,5 22,5 10,0 20,-1 30,-5 4,-14 12,-26 24,-34 -42,-4 -73,-14 -93,-31 -20,-18 -30,-46 -30,-86 0,-30 9,-55 27,-75 -3,-10 -5,-21 -5,-32 0,-14 3,-28 10,-41 15,0 27,2 39,7 11,5 23,13 38,23 19,-4 40,-7 64,-7 20,0 40,2 58,7 15,-11 27,-18 38,-23 11,-5 24,-7 38,-7 7,13 10,27 10,41 0,11 -1,22 -5,32 18,21 28,46 28,75 0,40 -10,69 -31,86 -20,17 -51,28 -93,32 18,12 27,28 27,49l0 86c50,-15 91,-45 122,-88 32,-43 48,-90 48,-143zm48 0l0 0c0,53 -13,101 -39,146 -26,45 -61,80 -106,106 -45,26 -93,39 -146,39 -53,0 -102,-13 -147,-39 -44,-26 -80,-61 -106,-106 -26,-45 -39,-93 -39,-146 0,-53 13,-102 39,-147 26,-44 62,-80 106,-106 45,-26 94,-39 147,-39 53,0 101,13 146,39 45,26 80,62 106,106 26,45 39,94 39,147z"
            />
          </svg>
