<?xml version="1.0" encoding="utf-8"?>
<!-- Generator: Adobe Illustrator 19.0.0, SVG Export Plug-In . SVG Version: 6.00 Build 0)  -->
<svg version="1.1" id="Layer_1" xmlns="http://www.w3.org/2000/svg" xmlns:xlink="http://www.w3.org/1999/xlink" x="0px" y="0px" width="20px" height="20px"
	 viewBox="0 0 72 72" style="enable-background:new 0 0 72 72;" xml:space="preserve">
<style type="text/css">
	.st0{fill-rule:evenodd;clip-rule:evenodd;fill:#8CDEF7;}
</style>
<g>
	<path class="st0" d="M6.3,53.5h59.5c3.4,0,6.2,2.8,6.2,6.2v0c0,3.4-2.8,6.2-6.2,6.2H6.3C2.8,66,0,63.2,0,59.7v0
		C0,56.3,2.8,53.5,6.3,53.5z"/>
	<path class="st0" d="M6.3,6h59.5c3.4,0,6.2,2.8,6.2,6.2v0c0,3.4-2.8,6.2-6.2,6.2H6.3c-3.4,0-6.2-2.8-6.2-6.2v0C0,8.8,2.8,6,6.3,6z"
		/>
	<path class="st0" d="M6.3,29.8h59.5c3.4,0,6.2,2.8,6.2,6.2v0c0,3.4-2.8,6.2-6.2,6.2H6.3C2.8,42.2,0,39.4,0,36v0
		C0,32.6,2.8,29.8,6.3,29.8z"/>
</g>
</svg>
